<svg version="1.1" xmlns="http://www.w3.org/2000/svg" xmlns:xlink="http://www.w3.org/1999/xlink" width="197.06967" height="152.5895" viewBox="0,0,197.06967,152.5895"><g transform="translate(-128.68026,-116.57713)"><g stroke-miterlimit="10"><path d="M129.68026,268.16662v-150.5895h195.06967v150.5895z" fill="#ffffff" stroke="#000000" stroke-width="2"/><path d="M218.02158,221.57427c0.0333,0 0.0657,0.00089 0.09724,0.00261c2.37946,-2.81762 4.00948,-6.50951 5.08122,-9.95047c2.92396,-9.38771 3.50162,-18.90877 3.88589,-28.67661c-0.00045,-4.69133 0.10825,-9.39867 0.00009,-14.08874c-0.01899,-0.82351 -0.07627,-1.64569 -0.11425,-2.46854c-0.03884,-0.8414 -0.2011,-1.68619 -0.1162,-2.52419c0.01828,-0.18049 0.58683,-0.39241 0.40839,-0.35972c-9.21073,1.68728 -18.79627,2.04952 -28.18207,2.85402c-0.68018,0.05798 -5.66676,0.51612 -5.85372,0.36036c-0.88938,-0.74091 -0.40875,-2.28122 -0.52198,-3.43322c-0.3825,-3.8918 0.61237,-7.82763 -0.2851,-11.69642c-0.21082,-0.90879 -1.75191,-4.24546 -0.97904,-5.19423c0.9794,-1.2023 6.59577,-1.4742 8.18393,-1.78052c6.35818,-1.22633 12.71445,-2.46165 19.06934,-3.70493c11.07041,-2.02606 22.10198,-3.37071 33.30508,-4.44455c2.66498,-0.25545 6.14781,-0.78239 8.78717,-0.21641c0.8123,0.17418 2.02593,0.04669 2.35753,0.8084c0.3158,0.7254 -0.74081,4.20901 -1.04892,5.31123c-2.77067,6.31829 -4.99182,12.65653 -7.10718,19.21251c-0.5414,1.67792 -0.62552,5.9261 -2.72204,6.59937c-2.68539,0.86238 -7.88649,-1.16158 -10.73575,-1.55184c-1.18066,-0.16171 -5.53689,-1.27806 -5.38707,-0.89228c2.47498,15.63368 5.01005,33.6251 12.96796,47.55733c0.44722,0.79443 0.92679,1.59708 1.58192,2.23105c0.61651,0.59661 1.77096,0.92765 1.8579,1.78115c0.08653,0.84945 -0.96748,1.40727 -1.4622,2.1032c-1.35193,1.90178 -2.70434,2.81798 -4.74971,4.00351c-5.26758,3.05317 -11.88523,5.18446 -17.89521,5.57579c-3.68568,0.23998 -5.58678,0.83711 -9.15994,-0.7942c-0.64813,-1.18389 -1.09717,-2.35236 -1.71846,-3.4836c-0.14035,-0.06161 -0.28455,-0.15876 -0.42874,-0.30295c-0.47991,-0.47991 -0.43868,-0.95981 -0.30075,-1.29824l-0.06536,-0.28888c0,0 0,-1.25 1.25,-1.25zM219.74372,223.52669c0.47302,0.90727 0.81105,1.79783 1.23395,2.83155c7.11845,2.0554 15.36505,-1.14122 21.99697,-4.04515c2.70482,-1.18437 4.19625,-2.68742 6.20755,-4.5162c0.22547,-0.20501 0.9469,0.05682 0.88192,-0.24092c-0.06821,-0.31253 -0.67979,0.06885 -0.95504,-0.09414c-1.03087,-0.61043 -1.6216,-1.98047 -2.16867,-2.926c-2.67983,-4.72522 -4.27166,-9.81759 -5.91081,-14.96993c-3.49679,-10.99142 -5.88309,-22.62743 -7.37533,-34.05032c0.36792,-0.79509 0.36823,-1.9093 1.10375,-2.38525c0.42475,-0.27486 4.38106,0.62707 4.67547,0.67751c2.07012,0.35471 4.17646,0.47122 6.24454,0.8258c1.83373,0.3144 3.72324,1.32683 5.6087,1.25077c0.88583,-0.03573 0.34525,-1.73983 0.55799,-2.60048c0.20648,-0.83533 0.50132,-1.64639 0.76472,-2.46555c2.11601,-6.58068 4.33547,-12.95298 7.13218,-19.28618c0.30005,-1.08776 0.92968,-2.06005 1.2952,-3.12759c0.06134,-0.17915 -0.26989,0.30164 -0.45541,0.33958c-0.40039,0.08187 -0.81734,0.00379 -1.22602,0.00426c-0.83333,0.00096 -1.66667,0.00024 -2.5,0c-3.22028,-0.00093 -6.38839,0.37965 -9.59272,0.68776c-9.46248,0.90985 -18.75514,2.22334 -28.10227,3.93383c-6.35208,1.24286 -12.70552,2.47795 -19.061,3.70334c-0.8322,0.16046 -4.11187,0.81977 -4.96258,0.87527c-0.54635,0.03564 -1.17516,-0.42249 -1.63744,-0.12912c-0.27782,0.17631 0.43237,0.50963 0.55997,0.81292c0.92004,2.18679 0.80069,2.33685 1.03369,4.53299c0.34393,3.24183 0.37733,6.80429 0.11234,10.05932c-0.04364,0.53603 -0.81721,1.23589 -0.39194,1.5651c0.43879,0.33968 0.96971,-0.57633 1.51092,-0.69887c0.83015,-0.18795 1.69605,-0.14614 2.54407,-0.21921c7.31449,-0.62696 14.63202,-1.21524 21.94576,-1.85118c1.7615,-0.15317 6.62715,-1.22864 8.12443,-0.36822c0.44737,0.25708 0.52359,4.47453 0.53053,4.62491c0.25664,5.56256 0.11686,11.15324 0.11633,16.72152c-0.50615,12.94655 -0.54998,30.22631 -9.84172,40.5279z" fill="#000000" stroke="none" stroke-width="0.5"/><path d="M219.75277,223.47753c9.29174,-10.30159 9.27698,-27.53874 9.78313,-40.48529c0.00053,-5.56828 0.18315,-11.10285 -0.07349,-16.66541c-0.00694,-0.15038 -0.08045,-4.36754 -0.52782,-4.62462c-1.49728,-0.86042 -6.34406,0.21296 -8.10556,0.36613c-7.31374,0.63594 -14.60445,1.20411 -21.91894,1.83107c-0.84802,0.07307 -1.71274,0.0294 -2.54289,0.21735c-0.54121,0.12254 -1.15875,0.98861 -1.59754,0.64893c-0.42527,-0.32921 0.34934,-1.03087 0.39298,-1.5669c0.26499,-3.25503 0.23749,-6.82535 -0.10644,-10.06718c-0.233,-2.19614 -0.11172,-2.34819 -1.03176,-4.53498c-0.1276,-0.30329 -0.83767,-0.63673 -0.55985,-0.81304c0.46228,-0.29337 1.09192,0.16397 1.63827,0.12833c0.85071,-0.0555 4.13401,-0.71786 4.96621,-0.87832c6.35548,-1.22539 12.72916,-2.46969 19.08124,-3.71255c9.34713,-1.71049 18.67086,-3.02038 28.13334,-3.93023c3.20433,-0.30811 6.37938,-0.68478 9.59966,-0.68385c0.83333,0.00024 1.66823,0.00205 2.50156,0.00109c0.40868,-0.00047 0.82635,0.07814 1.22674,-0.00373c0.18552,-0.03794 0.51686,-0.51864 0.45552,-0.33949c-0.36552,1.06754 -0.9945,2.04034 -1.29455,3.1281c-2.79671,6.3332 -5.00929,12.71209 -7.1253,19.29277c-0.2634,0.81916 -0.55685,1.6319 -0.76333,2.46723c-0.21274,0.86065 0.24759,2.62435 -0.63824,2.66008c-1.88546,0.07606 -3.76971,-0.93003 -5.60344,-1.24443c-2.06808,-0.35458 -4.16582,-0.46407 -6.23594,-0.81878c-0.29441,-0.05044 -4.24153,-0.9477 -4.66628,-0.67284c-0.73552,0.47595 -0.70039,1.49665 -1.06831,2.29174c1.49224,11.42289 3.89268,23.14446 7.38947,34.13588c1.63915,5.15234 3.22565,10.24851 5.90548,14.97373c0.54707,0.94553 1.08488,2.23072 2.11575,2.84115c0.27525,0.16299 0.94083,-0.13423 1.00904,0.1783c0.06498,0.29774 -0.65733,0.03648 -0.8828,0.24149c-2.0113,1.82878 -3.51078,3.3359 -6.2156,4.52027c-6.63192,2.90393 -14.90407,6.10357 -22.02252,4.04817c-0.4229,-1.03372 -0.76286,-1.9246 -1.23588,-2.83187z" fill="#ffffff" stroke="none" stroke-width="0.5"/><path d="M209.73923,156.48577c0,-0.69036 0.55964,-1.25 1.25,-1.25c0.69036,0 1.25,0.55964 1.25,1.25c0,0.69036 -0.55964,1.25 -1.25,1.25c-0.69036,0 -1.25,-0.55964 -1.25,-1.25z" fill="#000000" stroke="none" stroke-width="0.5"/><path d="M226.38245,149.92225c0,-0.69036 0.55964,-1.25 1.25,-1.25c0.69036,0 1.25,0.55964 1.25,1.25c0,0.69036 -0.55964,1.25 -1.25,1.25c-0.69036,0 -1.25,-0.55964 -1.25,-1.25z" fill="#000000" stroke="none" stroke-width="0.5"/><path d="M170.91493,202.90729c1.51318,-3.89275 1.59479,-7.96888 2.82977,-11.85439c-3.73794,1.17825 -7.44629,2.42511 -11.05673,3.90856c-0.03297,0.48531 -0.03937,0.97334 -0.0192,1.45971c0.51375,0.30092 0.57119,0.92451 0.57762,1.0602c0.57342,1.36076 0.92556,2.81972 1.15635,4.27775c0.44152,2.52923 0.79777,4.95918 1.01476,7.39041c3.76863,-0.05929 4.20927,-2.92836 5.49744,-6.24224zM176.51925,190.70529c-0.3157,0.78259 -0.94523,1.43886 -1.1417,2.25953c-0.37185,1.55321 -0.14275,3.19584 -0.3651,4.77739c-0.52217,3.71408 -1.82125,7.29137 -3.73799,10.48677c-0.61155,1.01952 -1.195,2.48596 -2.38914,3.0551c-0.84401,0.40226 -2.2611,0.37462 -3.29609,0.36745c0.09239,1.95872 0.08345,3.94038 -0.05463,5.99677c-0.08533,1.27085 -1.15162,5.07762 -0.24611,6.25882c0.15572,0.20314 0.44977,-0.27222 0.70313,-0.30858c2.04966,-0.2942 4.04784,-0.40509 6.10671,-0.73896c5.55676,-0.90109 11.10664,-1.80502 16.632,-2.88314c2.14321,-0.41819 4.28378,-0.82458 6.41199,-1.31251c1.16898,-0.268 3.10681,0.03474 3.41802,-1.12349c0.16833,-0.62649 -0.43657,-1.22972 -0.53665,-1.87066c-0.21077,-1.34978 -0.00505,-2.73229 -0.00505,-4.09843c0,-3.84002 0.02871,-7.64577 0.19561,-11.44457c-4.71758,-2.61637 -7.87143,-9.01832 -11.33738,-13.19675c-3.39734,1.14137 -6.83678,2.17568 -10.26604,3.23153c0.00408,0.3046 -0.09157,0.54375 -0.09157,0.54375zM200.77753,200.31089c-0.03018,0.04528 -0.06103,0.08727 -0.09241,0.12617c-0.08845,1.2145 -0.14789,2.4323 -0.16664,3.65443c-0.05718,3.72672 -0.30108,7.63994 -0.00489,11.35376c0.08134,1.01997 0.7604,2.10804 0.35777,3.04869c-1.31248,3.06626 -8.90766,3.39874 -11.66225,3.93622c-6.36883,1.2427 -12.77296,2.26141 -19.17836,3.29735c-1.20053,0.19416 -5.23792,1.13122 -6.1678,0.23333c-1.77962,-1.71839 -1.21606,-3.99999 -1.04399,-6.01803c0.53009,-6.21661 0.18819,-11.63855 -0.8832,-17.77867c-0.1121,-0.75331 -0.26052,-1.50905 -0.47002,-2.24489c-0.71734,-0.14302 -0.91564,-0.93621 -0.91564,-0.93621l-0.26208,-1.08577c-0.16154,-1.34389 -0.16154,-2.71679 0,-4.06067c0,0 0.14135,-1.13079 1.23381,-1.09802c7.45494,-3.0665 15.44464,-4.72409 23.0337,-7.42756c6.03468,-2.14975 11.9792,-5.36172 18.32715,-6.34361c-0.12022,6.69299 -1.46861,13.29969 -2.07647,19.9942c0.20792,0.30447 0.35497,0.77381 -0.02868,1.3493zM195.46731,193.79921c0.97801,1.27914 1.74028,2.52573 2.90111,3.45786c0.16802,-2.62054 0.415,-5.24104 0.77691,-7.87047c0.35951,-2.61196 0.40701,-5.62681 1.754,-7.92005c-1.61651,1.85241 -6.37368,2.64881 -8.48671,3.47058c-0.99573,0.38725 -1.99777,0.75869 -3.00472,1.11772c2.09039,2.51764 4.07025,5.14274 6.05941,7.74436z" fill="#000000" stroke="none" stroke-width="0.5"/><path d="M170.9497,202.94323c-1.28817,3.31388 -1.77827,6.1948 -5.5469,6.25409c-0.21699,-2.43123 -0.60437,-4.88897 -1.04589,-7.4182c-0.23079,-1.45803 -0.5813,-2.96036 -1.15472,-4.32112c-0.00643,-0.13569 -0.0613,-0.76361 -0.57505,-1.06453c-0.02017,-0.48637 -0.00871,-0.9808 0.02426,-1.46611c3.61044,-1.48345 7.38148,-2.73885 11.11942,-3.9171c-1.23498,3.88551 -1.30795,8.04021 -2.82113,11.93296z" fill="#00a1ff" stroke="none" stroke-width="0.5"/><path d="M189.26778,190.89779c-0.4812,-0.57248 -0.92318,-1.17615 -1.31276,-1.82674l-0.24094,0.16865l-0.73071,-1.04386c-0.14773,-0.20527 -0.23474,-0.45717 -0.23474,-0.72938c0,-0.69036 0.55964,-1.25 1.25,-1.25c0.03992,0 0.07941,0.00188 0.11837,0.00554l1.21414,0.10117c0.09193,-0.00008 0.18385,-0.00016 0.27578,-0.00023c-0.08069,-0.09794 -0.16148,-0.19563 -0.24236,-0.29304c1.00695,-0.35903 2.02599,-0.74804 3.02173,-1.13529c2.11303,-0.82177 6.92595,-1.6161 8.54246,-3.4685c-1.34699,2.29324 -1.37391,5.34883 -1.73342,7.96079c-0.31313,2.27499 -0.56353,4.57773 -0.73417,6.85444c0.34752,0.46638 0.64415,0.95756 0.49067,1.45915c-1.35679,4.43412 -4.93488,0.60467 -6.14347,-0.92782c-0.56664,-0.7185 -1.02997,-1.51304 -1.52426,-2.2831c-0.74166,-1.15542 -1.39893,-2.36523 -2.01632,-3.5918z" fill="#00a1ff" stroke="none" stroke-width="0.5"/><path d="M176.50251,190.6582c0,0 0.09644,-0.23942 0.09236,-0.54402c3.42926,-1.05585 6.89798,-2.09097 10.29532,-3.23234c3.46595,4.17843 6.65405,10.6132 11.37163,13.22957c-0.1669,3.7988 -0.1964,7.63755 -0.1964,11.47757c0,1.36614 -0.21018,2.75763 0.00059,4.10741c0.10008,0.64094 0.70323,1.24677 0.5349,1.87326c-0.31121,1.15823 -2.25405,0.86141 -3.42303,1.12941c-2.12821,0.48793 -4.28272,0.90426 -6.42593,1.32245c-5.52536,1.07812 -11.12112,1.98069 -16.67788,2.88178c-2.05887,0.33387 -4.06558,0.43879 -6.11524,0.73299c-0.25336,0.03636 -0.54791,0.51128 -0.70363,0.30814c-0.90551,-1.1812 0.15411,-4.99522 0.23944,-6.26607c0.13808,-2.05639 0.1403,-4.05019 0.04791,-6.00891c1.03499,0.00717 2.45323,0.03755 3.29724,-0.36471c1.19414,-0.56914 1.7748,-2.0434 2.38635,-3.06292c1.91674,-3.1954 3.2312,-6.82314 3.75337,-10.53722c0.22235,-1.58155 0.00343,-3.23109 0.37528,-4.7843c0.19647,-0.82067 0.83202,-1.47953 1.14772,-2.26212z" fill="#ffffff" stroke="none" stroke-width="0.5"/><path d="M178.32807,208.52516c0,-0.69036 0.55964,-1.25 1.25,-1.25c0.69036,0 1.25,0.55964 1.25,1.25c0,0.69036 -0.55964,1.25 -1.25,1.25c-0.69036,0 -1.25,-0.55964 -1.25,-1.25z" fill="#000000" stroke="none" stroke-width="0.5"/><path d="M188.64218,200.08634c0,-0.69036 0.55964,-1.25 1.25,-1.25c0.69036,0 1.25,0.55964 1.25,1.25c0,0.69036 -0.55964,1.25 -1.25,1.25c-0.69036,0 -1.25,-0.55964 -1.25,-1.25z" fill="#000000" stroke="none" stroke-width="0.5"/><text transform="translate(269.0134,154.72153) rotate(-9.48446) scale(0.31874,0.45935) skewX(-9.25577)" font-size="40" xml:space="preserve" fill="#64ff35" stroke="none" stroke-width="1" font-family="Serif" font-weight="normal" text-anchor="start"><tspan x="0" dy="0">nothin</tspan><tspan x="0" dy="46.150000000000006px">personal</tspan><tspan x="0" dy="46.150000000000006px">kid</tspan></text><path d="M165.49346,211.58132c-0.45328,-0.72524 -0.10022,-1.2644 0.16798,-1.53262c0.10317,-0.30306 0.29044,-0.50594 0.29044,-0.50594c1.35836,-1.46891 2.37554,-2.95539 3.16233,-4.4783l0.50431,-1.26528l0.63078,-1.57687l0.44305,-1.1425c0.02856,-0.09621 0.05663,-0.19261 0.08422,-0.28921l0.26194,-1.23823l0.43959,-1.86292l0.0969,-0.29119c0.3891,-1.97111 0.70571,-4.03303 1.12632,-6.21578l2.51449,-1.6798l0.37465,2.99188l-0.44196,1.76551l-0.04684,0.14063c0.84676,0.42631 0.58269,1.41658 0.58269,1.41658c-1.42454,5.34138 -2.68406,11.76162 -7.25766,15.36102l-0.41075,0.46533l-0.11066,-0.09836l-0.68931,0.43355c0,0 -1.06,0.6625 -1.7225,-0.3975z" fill="#00a1ff" stroke="none" stroke-width="0.5"/><path d="M243.38241,164.25829c-0.42726,-0.36764 -0.42726,-0.97872 -0.42726,-0.97872c0.00781,-5.48423 1.23912,-11.38011 2.73525,-16.61225c0.59718,-2.08842 0.89302,-5.81247 2.62781,-7.38144c1.37652,-1.24495 4.27371,-0.98338 5.82689,-0.95046c-0.17564,6.85026 -2.79248,13.3395 -3.60538,20.15057c-0.21888,1.83393 -0.06426,3.33667 0.1296,5.12528c0.08193,0.75594 0.55844,1.64457 0.13635,2.27702c-1.35065,2.02381 -3.73422,0.65498 -5.29754,0.13388l-1.27371,-0.42457c0,0 -1.02272,-0.34091 -0.85202,-1.33932z" fill="#64ff35" stroke="none" stroke-width="0.5"/><path d="M196.75204,164.6962c-0.23096,0.01859 -0.49756,-0.0388 -0.79192,-0.23504c-1.04006,-0.69338 -0.34669,-1.73344 -0.34669,-1.73344c1.93004,-2.62571 -0.34888,-8.35102 -0.35146,-11.47758c-0.00071,-0.85778 -0.10451,-3.16259 0.45664,-3.80174c0.5849,-0.6662 3.81293,-1.10035 4.45107,-0.39038c0.81219,0.90362 0.70734,3.46102 0.70579,4.75821c-0.00219,1.82859 0.17368,3.72972 0.667,5.48638c0.98968,3.95906 1.60682,6.67256 -3.20259,7.76329l0.00481,0.03932c0,0 -1.01302,0.50651 -1.59265,-0.40902z" fill="#64ff35" stroke="none" stroke-width="0.5"/><path d="M229.23838,177.33264c-0.19817,-1.08752 0.91016,-1.38979 0.91016,-1.38979c0.34746,-0.09465 2.53319,-0.71203 3.27809,-0.8291l0.26661,-0.66652c0.17726,-0.47474 0.63486,-0.8128 1.17141,-0.8128c0.64884,0 1.18221,0.49435 1.24402,1.12695l0.13986,1.25872l-0.02721,0.00302l0.03294,0.06589c0,0.70335 0.02828,1.45267 -0.03437,2.15329c1.15728,2.41035 1.82459,5.51028 1.01177,6.87164c-1.04343,1.74759 -4.63555,1.79787 -6.4089,1.63315c-0.89065,-0.08273 -2.1966,0.26321 -2.63307,-0.51756c-0.534,-0.95524 0.28973,-2.17254 0.53271,-3.23959c0.07073,-0.3106 0.14894,-0.61953 0.23074,-0.92765c-0.03471,-0.05517 -0.06756,-0.11172 -0.09835,-0.1698c-0.66951,-1.26276 -0.64824,-3.54975 0.3836,-4.55985z" fill="#64ff35" stroke="none" stroke-width="0.5"/><path d="M224.67198,208.48026c-0.43983,-2.7767 -1.78643,-6.75697 0.70894,-7.73575c0.1948,-0.07641 0.39352,-0.11015 0.59509,-0.11301l-0.01015,-0.10153l1.3985,-0.13985c0.04632,-0.0052 0.0934,-0.00788 0.14111,-0.00788c0.14341,0 0.28118,0.02415 0.40946,0.06861c0.34037,-0.10544 0.65691,-0.04959 0.65691,-0.04959c3.71302,0.65536 7.19756,0.68623 10.96307,0.68859c1.17067,0.00074 2.50959,-0.6236 3.51197,-0.01887c2.55165,1.53941 3.09421,6.52636 3.89737,9.07152c0.162,0.51337 0.65931,0.94824 0.63267,1.4859c-0.10394,2.09771 -1.03231,2.39324 -2.42225,3.51534c-5.79537,2.92948 -12.26189,4.86602 -18.73251,3.56691c-0.74426,-0.14943 -2.69439,-0.12365 -3.15796,-0.58954c-0.80751,-0.81154 -0.68603,-2.55522 -0.68831,-3.61031c-0.0058,-2.68315 0.16121,-4.60714 2.09611,-6.03056z" fill="#64ff35" stroke="none" stroke-width="0.5"/><text transform="translate(140.73738,249.96124) scale(0.68258,0.39409)" font-size="40" xml:space="preserve" fill="#00a1ff" stroke="none" stroke-width="1" font-family="Serif" font-weight="normal" text-anchor="start"><tspan x="0" dy="0">nah i get it</tspan></text></g></g></svg>