<svg version="1.1" xmlns="http://www.w3.org/2000/svg" xmlns:xlink="http://www.w3.org/1999/xlink" width="128.5" height="128.03939" viewBox="0,0,128.5,128.03939"><g transform="translate(-176.00001,-108.7343)"><g stroke-miterlimit="10"><text transform="translate(176.25002,130.18431) scale(0.5,0.5)" font-size="40" xml:space="preserve" fill="#4572ff" stroke="none" stroke-width="1" font-family="Sans Serif" font-weight="400" text-anchor="start"><tspan x="0" dy="0">the color was</tspan><tspan x="0" dy="46.15px">changed in</tspan><tspan x="0" dy="46.15px">development</tspan></text><path d="M195.78526,235.14291v-30.65884h26.74494v30.65884z" fill="#ff7456" stroke="#000000" stroke-width="0"/><path d="M260.36452,236.77369v-31.96347h26.41878v31.96347z" fill="#ff5444" stroke="#000000" stroke-width="0"/><path d="M251.93546,218.48511c1.19985,0.10553 1.83878,0.38415 2.12892,0.74433c0.42296,0.13636 0.73505,0.30504 0.8278,0.51721c0.19407,0.44396 -0.69223,0.84164 -1.04238,1.26164c-0.09043,0.10847 -0.18878,0.21653 -0.29417,0.32412c-0.0591,0.07777 -0.11761,0.15226 -0.17358,0.22265c-0.69121,0.86913 -1.32212,1.94913 -2.59089,2.66326c-1.21191,0.68213 -3.12581,1.27991 -4.51987,1.86739l-0.11576,0.00816l0.02568,0.02113l-1.17748,0.34872c-0.19675,0.06059 -0.42917,0.0956 -0.67816,0.0956c-0.70856,0 -1.28295,-0.28352 -1.28295,-0.63326c0,-0.19383 0.17643,-0.36733 0.45435,-0.48349l1.66745,-0.70547l0.10677,0.06148c1.61902,-1.11523 3.42122,-2.17569 5.06625,-3.26114l-0.46843,-0.0578c-2.89442,0.01217 -5.69541,0.3817 -8.57214,0.47548c-2.48178,0.08091 -9.05876,-0.06633 -11.53937,-0.11735c0,0 -1.28184,-0.02636 -1.22843,-0.65908c0.05341,-0.63272 1.33525,-0.60635 1.33525,-0.60635c2.38945,0.04914 8.88225,0.19786 11.27308,0.1187c2.79556,-0.09255 5.50106,-0.41378 8.30008,-0.46247l-0.6888,-0.56665c-0.54,-0.11322 -1.07074,-0.23839 -1.61418,-0.34752c-3.49224,-0.70129 -2.32673,-0.58592 -5.64076,-1.47302l-0.0367,-0.02531l-0.01313,0.00972l-1.41811,-0.46665c-0.35371,-0.11276 -0.58786,-0.30906 -0.58786,-0.53236c0,-0.34974 0.5744,-0.63326 1.28295,-0.63326c0.18508,0 0.361,0.01934 0.51993,0.05416l2.34204,0.48168l-0.00242,0.00286c0.01204,0.00143 0.02408,0.00288 0.03611,0.00435c1.41252,0.17196 -1.866,-0.53286 -0.61571,-0.22519c2.2894,0.56337 4.66757,1.03653 6.96042,1.59995l0.91235,0.28052l0.82209,0.06299l-0.00389,0.01236c0.08137,0.00487 0.16259,0.0108 0.24366,0.01793z" fill="#4572ff" stroke="none" stroke-width="0.5"/></g></g></svg>